<svg width="32" height="32" viewBox="0 0 32 32" fill="none" xmlns="http://www.w3.org/2000/svg">
<path fill-rule="evenodd" clip-rule="evenodd" d="M1.33334 3.78404C1.33334 3.13409 1.59154 2.51075 2.05113 2.05116C2.51072 1.59157 3.13405 1.33338 3.78401 1.33338H28.2133C28.5354 1.33285 28.8545 1.39586 29.1522 1.5188C29.4499 1.64174 29.7205 1.82219 29.9483 2.04983C30.1762 2.27746 30.357 2.54781 30.4802 2.84539C30.6035 3.14297 30.6669 3.46194 30.6667 3.78404V28.2134C30.667 28.5355 30.6039 28.8546 30.4808 29.1523C30.3577 29.4501 30.1771 29.7206 29.9494 29.9485C29.7216 30.1763 29.4512 30.357 29.1535 30.4803C28.8559 30.6035 28.5368 30.6669 28.2147 30.6667H3.78401C3.46207 30.6667 3.14329 30.6033 2.84587 30.48C2.54846 30.3568 2.27824 30.1762 2.05066 29.9485C1.82307 29.7207 1.64259 29.4504 1.51951 29.1529C1.39643 28.8555 1.33317 28.5366 1.33334 28.2147V3.78404ZM12.944 12.5174H16.916V14.512C17.4893 13.3654 18.956 12.3334 21.16 12.3334C25.3853 12.3334 26.3867 14.6174 26.3867 18.808V26.5707H22.1107V19.7627C22.1107 17.376 21.5373 16.0294 20.0813 16.0294C18.0613 16.0294 17.2213 17.4814 17.2213 19.7627V26.5707H12.944V12.5174ZM5.61068 26.388H9.88801V12.3334H5.61068V26.3867V26.388ZM10.5 7.74938C10.5081 8.11561 10.4429 8.47976 10.3083 8.82046C10.1738 9.16117 9.97248 9.47156 9.71632 9.73342C9.46016 9.99528 9.15427 10.2033 8.81662 10.3454C8.47896 10.4874 8.11633 10.5606 7.75001 10.5606C7.38369 10.5606 7.02106 10.4874 6.6834 10.3454C6.34575 10.2033 6.03986 9.99528 5.7837 9.73342C5.52754 9.47156 5.32627 9.16117 5.19169 8.82046C5.05711 8.47976 4.99195 8.11561 5.00001 7.74938C5.01584 7.03052 5.31252 6.34643 5.82652 5.84363C6.34052 5.34082 7.03098 5.05927 7.75001 5.05927C8.46905 5.05927 9.1595 5.34082 9.6735 5.84363C10.1875 6.34643 10.4842 7.03052 10.5 7.74938V7.74938Z" fill="white"/>
</svg>
