<svg width="90" height="90" viewBox="0 0 90 90" fill="none" xmlns="http://www.w3.org/2000/svg">
<g clip-path="url(#clip0_133_72)">
<path d="M90 69.705C88.6901 70.2004 87.2442 70.1993 85.9351 69.7019C84.626 69.2045 83.5442 68.2452 82.8938 67.005L69.9563 49.1137L68.0813 46.6125L53.07 67.0275C52.4587 68.2157 51.4356 69.1405 50.1919 69.6292C48.9482 70.1178 47.5691 70.1367 46.3125 69.6825L65.655 43.7325L47.6625 20.2912C48.9562 19.825 50.3711 19.8188 51.6689 20.2737C52.9666 20.7286 54.068 21.6168 54.7875 22.7887L68.1975 40.9012L81.6825 22.8637C82.2985 21.6967 83.3219 20.7967 84.5581 20.3348C85.7944 19.873 87.1572 19.8815 88.3875 20.3587L81.405 29.625L71.9475 41.9362C71.6849 42.1705 71.4747 42.4576 71.3308 42.7788C71.1869 43.1 71.1125 43.448 71.1125 43.8C71.1125 44.1519 71.1869 44.4999 71.3308 44.8211C71.4747 45.1423 71.6849 45.4294 71.9475 45.6637L89.9625 69.7087L90 69.705ZM0.00751447 43.41L1.58251 35.6287C5.91001 20.2425 23.55 13.8412 35.685 23.3662C42.7913 28.95 44.565 36.855 44.2163 45.765H4.18501C3.53626 61.6762 15.0188 71.2837 29.7 66.375C32.08 65.5183 34.2103 64.0846 35.9001 62.2024C37.5899 60.3202 38.7864 58.0482 39.3825 55.59C40.1588 53.0925 41.4375 52.665 43.785 53.385C43.3938 56.4314 42.3169 59.3495 40.6353 61.9196C38.9536 64.4898 36.7111 66.6452 34.0763 68.2237C29.7241 70.6043 24.7306 71.5479 19.8099 70.9195C14.8891 70.2911 10.293 68.1229 6.67876 64.725C3.10512 60.7027 0.9453 55.6218 0.528764 50.2575C0.528764 49.3762 0.228764 48.5512 0.0262645 47.76C0.00800958 46.3113 -0.000740607 44.8625 1.44685e-05 43.4137L0.00751447 43.41ZM4.23376 42.3375H40.4363C40.2113 30.8025 32.9325 22.62 23.2238 22.545C12.4163 22.395 4.68376 30.3975 4.20751 42.285L4.23376 42.3375Z" fill="white"/>
</g>
<defs>
<clipPath id="clip0_133_72">
<rect width="90" height="90" fill="white"/>
</clipPath>
</defs>
</svg>
