<svg width="90" height="90" viewBox="0 0 90 90" fill="none" xmlns="http://www.w3.org/2000/svg">
<path d="M88.6669 20.3625C88.695 20.4806 88.7119 20.6128 88.7119 20.7281V40.0499C88.7125 40.2965 88.6478 40.5389 88.5243 40.7523C88.4008 40.9658 88.2229 41.1426 88.0087 41.2649L71.7919 50.6109V69.1115C71.7925 69.3581 71.7278 69.6005 71.6043 69.8139C71.4808 70.0273 71.3029 70.2042 71.0887 70.3265L37.2375 89.8087C37.1585 89.8525 37.0744 89.8865 36.9872 89.9099L36.9 89.9549C36.6646 90.014 36.4182 90.014 36.1828 89.9549C36.1473 89.9443 36.1132 89.9292 36.0816 89.9099C36.0003 89.8848 35.922 89.8508 35.8481 89.8087L2.01093 70.3265C1.79534 70.2047 1.61558 70.0283 1.48969 69.815C1.36381 69.6018 1.29624 69.3591 1.29375 69.1115V11.1487C1.29375 11.0306 1.32187 10.8984 1.35281 10.7831C1.36687 10.7381 1.38093 10.71 1.39781 10.665L1.485 10.4456C1.49906 10.4006 1.54406 10.3725 1.57218 10.3275L1.70437 10.1503C1.75172 10.121 1.796 10.0871 1.83656 10.049C1.89562 10.004 1.93781 9.96183 1.99687 9.93089L18.9169 0.18839C19.1308 0.0655142 19.3733 0.000854492 19.62 0.000854492C19.8667 0.000854492 20.1092 0.0655142 20.3231 0.18839L37.2572 9.93089C37.3162 9.95901 37.3584 10.004 37.4034 10.049L37.5497 10.1503C37.5929 10.2067 37.6324 10.2658 37.6678 10.3275C37.6959 10.3556 37.7409 10.4006 37.7691 10.4456L37.8562 10.665C37.8703 10.71 37.9012 10.7381 37.9012 10.7831C37.9438 10.9001 37.9639 11.0242 37.9603 11.1487V47.3456L52.0509 39.2315V20.7309C52.0562 20.5647 52.0915 20.4008 52.155 20.2471L52.2422 20.0278C52.2703 19.9687 52.3153 19.9406 52.3434 19.8956C52.3884 19.8365 52.4166 19.7775 52.4616 19.7353C52.5066 19.6931 52.5628 19.6621 52.6078 19.634C52.65 19.5872 52.6994 19.5473 52.7541 19.5159L69.6881 9.77339C69.8997 9.64357 70.143 9.57486 70.3912 9.57486C70.6395 9.57486 70.8828 9.64357 71.0944 9.77339L88.0144 19.5159C88.0734 19.544 88.1156 19.589 88.1747 19.634C88.2197 19.6621 88.2619 19.6931 88.3069 19.7353C88.3519 19.7775 88.3941 19.8365 88.4391 19.8956C88.4672 19.9406 88.5122 19.9687 88.5262 20.0278C88.5712 20.1009 88.5853 20.174 88.6134 20.2471C88.6416 20.2753 88.6584 20.3203 88.6725 20.3653L88.6669 20.3625ZM85.8825 39.2287V23.175L79.965 26.5725L71.7919 31.289V47.3428L85.8825 39.2287ZM68.9794 68.2903V52.2196L60.9216 56.804L37.9519 69.9299V86.1468L68.9794 68.2903ZM4.10062 13.5928V68.2903L35.1253 86.1468V69.9299L18.9084 60.7443C18.8494 60.7162 18.8072 60.6712 18.7622 60.6262C18.7172 60.5981 18.6609 60.5671 18.63 60.5249H18.6159C18.5709 60.4799 18.5428 60.4237 18.4978 60.3787C18.4697 60.3337 18.4247 60.2915 18.3966 60.2324C18.3638 60.1772 18.3392 60.1175 18.3234 60.0553C18.2953 59.9962 18.2644 59.954 18.2503 59.8949C18.2362 59.8359 18.2222 59.7628 18.2222 59.6896C18.2081 59.6306 18.1941 59.5884 18.1941 59.5293V21.7068L10.0209 16.9903L4.10062 13.5928ZM19.6144 3.03183L5.52375 11.1459L19.6144 19.26L33.705 11.1459L19.6144 3.03183ZM26.9522 53.6878L35.1253 48.9712V13.5956L29.2078 16.9931L21.0206 21.7096V57.0853L26.9522 53.6878ZM70.3856 12.6112L56.2781 20.7253L70.3856 28.8393L84.4762 20.7253L70.3856 12.6112ZM68.9794 31.289L54.8719 23.175V39.2287L63.045 43.9453L68.9766 47.3428L68.9794 31.289ZM36.5344 67.4859L67.545 49.7896L53.4684 41.6756L22.4719 59.5181L36.5344 67.4859Z" fill="white"/>
</svg>
