<svg width="90" height="90" viewBox="0 0 90 90" fill="none" xmlns="http://www.w3.org/2000/svg">
<g clip-path="url(#clip0_132_40)">
<path d="M64.4737 35.8313C59.7337 14.9063 48.5287 8.02875 47.325 5.4C46.275 3.9225 45.3375 1.8225 44.5687 0C44.4337 1.85625 44.3625 2.56875 42.6075 4.44C39.8962 6.5625 25.965 18.2475 24.8325 42.015C23.775 64.185 40.845 77.3962 43.1625 79.08L43.425 79.2675C43.9076 82.8366 44.3202 86.4148 44.6625 90H46.4662C46.8934 86.1305 47.5319 82.2873 48.3787 78.4875C49.9425 77.3775 50.6437 76.7512 51.5662 75.8887C55.9348 71.8473 59.4067 66.9341 61.7573 61.4668C64.1079 55.9994 65.285 50.0996 65.2125 44.1487C65.25 41.0962 64.8262 37.9163 64.4737 35.8313V35.8313ZM44.4637 66.5625C44.4637 66.5625 44.4637 35.4713 45.495 35.475C46.2937 35.475 47.3325 75.5813 47.3325 75.5813C45.9037 75.4125 44.4637 68.9812 44.4637 66.5625Z" fill="white"/>
</g>
<defs>
<clipPath id="clip0_132_40">
<rect width="90" height="90" fill="white"/>
</clipPath>
</defs>
</svg>
