<svg width="90" height="90" viewBox="0 0 90 90" fill="none" xmlns="http://www.w3.org/2000/svg">
<g clip-path="url(#clip0_132_56)">
<path d="M22.4838 19.6678C22.4838 18.9069 22.7619 18.2484 23.318 17.6923C23.8741 17.1362 24.5326 16.8581 25.2935 16.8581C26.0545 16.8581 26.713 17.1362 27.2691 17.6923C27.8252 18.2484 28.1032 18.9069 28.1032 19.6678C28.1032 20.4288 27.8252 21.0873 27.2691 21.6434C26.713 22.1995 26.0545 22.4775 25.2935 22.4775C24.5326 22.4775 23.8741 22.1995 23.318 21.6434C22.7619 21.0873 22.4838 20.4288 22.4838 19.6678ZM89.9164 89.9101C89.6237 89.793 89.1994 89.632 88.6433 89.4272C88.0872 89.2223 87.0336 88.7687 85.4824 88.0662C83.9312 87.3638 82.4239 86.6175 80.9605 85.8273C79.4971 85.037 77.8728 83.9834 76.0875 82.6664C74.3021 81.3493 72.7363 79.9591 71.39 78.4957C70.2193 77.6762 68.4925 76.0372 66.2097 73.5788C67.4389 72.7593 69.3267 72.0715 71.8729 71.5154C74.4192 70.9593 76.6582 70.5935 78.5898 70.4179L81.4873 70.2423C81.4873 69.3057 80.6532 68.3252 78.985 67.3009C77.3167 66.2765 75.3704 65.3399 73.1461 64.4912C70.9217 63.6424 68.5072 62.4571 65.9023 60.9352C63.2975 59.4132 61.2634 57.8035 59.8 56.106C58.6879 54.8182 57.6635 53.3987 56.7269 51.8476C55.7904 50.2964 54.7075 48.2769 53.4782 45.7892C52.249 43.3014 51.5466 41.8819 51.371 41.5307C50.2003 39.7161 48.5174 37.2577 46.3223 34.1553C44.1272 31.0529 42.737 29.0335 42.1517 28.0969C40.3371 25.2872 37.1616 21.7751 32.6251 17.5606C28.0886 13.346 24.7082 11.2388 22.4838 11.2388C21.0205 11.2388 19.6742 11.5314 18.4449 12.1168C12.4743 7.78518 9.13782 5.61938 8.4354 5.61938C7.67444 5.61938 7.01592 5.89742 6.45983 6.45351C5.90375 7.00959 5.6257 7.66811 5.6257 8.42907C5.6257 8.89735 6.533 10.5363 8.34759 13.346C10.1622 16.1557 12.0938 18.9654 14.1426 21.7751C14.2596 22.7702 14.406 23.7653 14.5816 24.7604C14.7572 25.7555 14.9182 26.6043 15.0645 27.3067C15.2108 28.0091 15.4743 28.8432 15.8547 29.8091C16.2352 30.7749 16.5133 31.4773 16.6889 31.9163C16.8645 32.3553 17.2303 33.0724 17.7864 34.0675C18.3425 35.0626 18.6791 35.6626 18.7961 35.8675C18.9132 36.0723 19.2937 36.7016 19.9376 37.7552C20.5815 38.8088 20.9327 39.3649 20.9912 39.4235C20.4644 39.3649 20.0254 39.3357 19.6742 39.3357C18.8547 39.3357 18.1815 40.6381 17.6547 43.2429C17.1279 45.8477 16.8645 49.2281 16.8645 53.3841C16.8645 54.3207 17.6254 56.1353 19.1473 58.8279C20.9619 61.9888 22.0448 62.5156 22.396 60.4083C22.4546 60.0571 22.4838 59.5888 22.4838 59.0035C22.4838 54.2036 23.9472 51.4525 26.874 50.75C30.3276 57.5986 33.2836 63.1888 35.7421 67.5204C38.2006 71.852 40.6298 75.5104 43.0297 78.4957C38.1713 74.7495 32.9909 68.574 27.4886 59.9693C26.9618 61.9595 26.2447 63.7009 25.3374 65.1936C24.4301 66.6862 23.4789 67.4326 22.4838 67.4326C20.7278 67.4326 18.9425 66.4082 17.1279 64.3595C15.3133 62.3107 13.8792 59.984 12.8255 57.3791C11.7719 54.7743 11.2451 52.5061 11.2451 50.5744C11.2451 48.7598 11.4792 46.5794 11.9475 44.0331C12.4158 41.4868 13.0304 39.3064 13.7914 37.4918C12.3865 35.5016 11.289 33.526 10.4988 31.5651C9.70854 29.6042 9.13782 26.9847 8.78661 23.7068C8.49393 23.1799 8.08418 22.419 7.55737 21.4239C2.52334 12.2339 0.00632477 6.96569 0.00632477 5.61938C0.00632477 4.09746 0.562409 2.78042 1.67458 1.66825C2.78675 0.556084 4.10379 0 5.6257 0C6.85494 0 9.13782 0.643887 12.4743 1.93166C15.8108 3.21944 18.4156 4.50721 20.2888 5.79499C21.1083 5.67792 21.84 5.61938 22.4838 5.61938C25.2935 5.61938 29.1715 7.63885 34.1177 11.6778C39.0639 15.7167 42.6785 19.3166 44.9614 22.4775C45.0199 22.5361 45.6931 23.458 46.9808 25.2433C48.2686 27.0286 49.0735 28.1554 49.3954 28.6237C49.7174 29.092 50.4344 30.1164 51.5466 31.6968C52.6587 33.2773 53.449 34.4772 53.9173 35.2967C54.3855 36.1162 55.0148 37.1699 55.805 38.4576C56.5952 39.7454 57.2391 40.9161 57.7367 41.9697C58.2342 43.0234 58.6586 44.0185 59.0098 44.955C60.0635 47.5306 61.8488 49.9305 64.3658 52.1549C66.8828 54.3792 69.5462 56.2523 72.3558 57.7743C75.1655 59.2962 77.9167 60.8035 80.6093 62.2961C83.3019 63.7887 85.5263 65.4424 87.2823 67.257C89.0384 69.0716 89.9164 71.0032 89.9164 73.0519C89.0969 73.1105 88.0287 73.1983 86.7116 73.3154C85.3946 73.4324 83.3458 73.769 80.5654 74.3251C77.785 74.8812 75.7802 75.569 74.5509 76.3885C75.7216 77.8518 77.6094 79.5933 80.2142 81.6127C82.819 83.6322 85.0873 85.3736 87.0189 86.837C88.9506 88.3004 89.9164 89.3247 89.9164 89.9101Z" fill="white"/>
</g>
<defs>
<clipPath id="clip0_132_56">
<rect width="90" height="89.9101" fill="white"/>
</clipPath>
</defs>
</svg>
