<svg width="90" height="90" viewBox="0 0 90 90" fill="none" xmlns="http://www.w3.org/2000/svg">
<g clip-path="url(#clip0_132_68)">
<path d="M42.0525 0.0223584C41.8575 0.0411084 41.2425 0.104858 40.6875 0.146108C27.9075 1.30111 15.9375 8.19736 8.3475 18.7986C4.15613 24.6176 1.43145 31.3624 0.405 38.4599C0.045 40.9349 0 41.6624 0 45.0149C0 48.3674 0.045 49.0986 0.405 51.5699C2.85 68.4711 14.88 82.6686 31.1888 87.9299C34.11 88.8711 37.1888 89.5124 40.6875 89.9024C42.0525 90.0524 47.9475 90.0524 49.3125 89.9024C55.3537 89.2311 60.4762 87.7349 65.5237 85.1586C66.3 84.7649 66.45 84.6561 66.345 84.5699C66.27 84.5174 62.9738 80.0924 59.0138 74.7449L51.8175 65.0211L42.8025 51.6749C39.8029 47.2109 36.7754 42.7658 33.72 38.3399C33.6862 38.3286 33.6525 44.2574 33.6337 51.5024C33.6075 64.1774 33.5962 64.6874 33.4387 64.9874C33.2851 65.3375 33.011 65.6209 32.6663 65.7861C32.385 65.9286 32.1412 65.9549 30.81 65.9549H29.2875L28.8825 65.6999C28.6319 65.5416 28.4285 65.3188 28.2938 65.0549L28.1062 64.6611L28.125 47.0211L28.1512 29.3736L28.425 29.0286C28.6093 28.8129 28.8302 28.6314 29.0775 28.4924C29.4375 28.3161 29.5762 28.3011 31.1025 28.3011C32.895 28.3011 33.195 28.3686 33.66 28.8786C33.7912 29.0211 38.6738 36.3786 44.5163 45.2361L62.2687 72.1311L69.3937 82.9236L69.7575 82.6874C73.1865 80.4077 76.2953 77.6798 79.0012 74.5761C84.6719 68.086 88.3501 60.0979 89.595 51.5699C89.955 49.0949 90 48.3674 90 45.0149C90 41.6624 89.955 40.9349 89.595 38.4599C87.15 21.5624 75.12 7.36111 58.8112 2.09986C55.7632 1.13074 52.6246 0.473623 49.4438 0.138608C48.5963 0.0486084 42.7838 -0.0488916 42.0563 0.0261084L42.0525 0.0223584ZM60.4763 27.2474C60.6854 27.3527 60.8716 27.4984 61.0241 27.676C61.1766 27.8536 61.2925 28.0597 61.365 28.2824C61.4325 28.5074 61.4512 33.4011 61.4325 44.4261L61.4062 60.2436L58.62 55.9686L55.8225 51.6936V40.1961C55.8225 32.7599 55.8563 28.5824 55.9088 28.3799C55.9712 28.1456 56.0805 27.9265 56.23 27.7357C56.3795 27.5449 56.5662 27.3864 56.7787 27.2699C57.1425 27.0824 57.2737 27.0674 58.6537 27.0674C59.955 27.0674 60.1838 27.0861 60.4763 27.2436V27.2474Z" fill="white"/>
</g>
<defs>
<clipPath id="clip0_132_68">
<rect width="90" height="90" fill="white"/>
</clipPath>
</defs>
</svg>
