<svg width="90" height="90" viewBox="0 0 90 90" fill="none" xmlns="http://www.w3.org/2000/svg">
<path d="M45 82.4438C43.9688 82.4438 43.005 82.1663 42.105 81.6863L32.9587 76.2563C31.59 75.495 32.2763 75.2175 32.6888 75.0788C34.5488 74.46 34.8937 74.325 36.8175 73.23C37.0275 73.0913 37.3013 73.155 37.5113 73.2938L44.5238 77.4938C44.8013 77.6288 45.1462 77.6288 45.3525 77.4938L72.7988 61.605C73.0763 61.47 73.2113 61.1925 73.2113 60.8475V29.13C73.2113 28.7888 73.0763 28.5113 72.7988 28.3763L45.3525 12.555C45.0787 12.4163 44.7338 12.4163 44.5238 12.555L17.07 28.3725C16.7963 28.5075 16.6575 28.8563 16.6575 29.1263V60.84C16.6575 61.1138 16.7963 61.4625 17.07 61.5975L24.57 65.9363C28.6275 67.9913 31.1775 65.58 31.1775 63.18V31.8825C31.1775 31.47 31.5188 31.0538 32.0025 31.0538H35.5125C35.9175 31.0538 36.3375 31.3988 36.3375 31.8825V63.1838C36.3375 68.6175 33.3825 71.7863 28.2225 71.7863C26.64 71.7863 25.4025 71.7863 21.8925 70.0613L14.6738 65.94C13.7942 65.4287 13.0643 64.6955 12.5569 63.8137C12.0496 62.9319 11.7825 61.9324 11.7825 60.915V29.1975C11.7825 27.135 12.8813 25.2075 14.6738 24.1763L42.1088 8.28752C42.9994 7.81121 43.9938 7.56201 45.0038 7.56201C46.0137 7.56201 47.0081 7.81121 47.8987 8.28752L75.3375 24.1763C77.1338 25.2038 78.2288 27.135 78.2288 29.1975V60.915C78.2288 62.9738 77.13 64.9013 75.3375 65.94L47.8987 81.825C46.995 82.2375 45.9638 82.4438 45 82.4438V82.4438ZM53.46 60.6338C41.4225 60.6338 38.9475 55.1288 38.9475 50.4563C38.9475 50.0438 39.2925 49.6275 39.7725 49.6275H43.35C43.7625 49.6275 44.1037 49.9013 44.1037 50.3175C44.655 53.9588 46.2337 55.7513 53.5312 55.7513C59.3062 55.7513 61.7887 54.4388 61.7887 51.345C61.7887 49.5563 61.095 48.2513 52.0875 47.3588C44.5913 46.6088 39.915 44.9475 39.915 38.9663C39.915 33.3975 44.5912 30.0938 52.4362 30.0938C61.2375 30.0938 65.5725 33.1275 66.12 39.7238C66.1134 39.9464 66.0403 40.1619 65.91 40.3425C65.7713 40.4775 65.5688 40.6163 65.3625 40.6163H61.7887C61.6121 40.6125 61.4417 40.55 61.3046 40.4386C61.1674 40.3273 61.0712 40.1734 61.0312 40.0013C60.2025 36.2063 58.0725 34.9763 52.4362 34.9763C46.1025 34.9763 45.345 37.1775 45.345 38.8275C45.345 40.8188 46.2338 41.4375 54.7725 42.54C63.2325 43.6388 67.2225 45.2213 67.2225 51.1425C67.1475 57.1988 62.2012 60.6338 53.46 60.6338V60.6338Z" fill="white"/>
</svg>
