<svg width="90" height="90" viewBox="0 0 90 90" fill="none" xmlns="http://www.w3.org/2000/svg">
<g clip-path="url(#clip0_132_42)">
<path d="M90 43.8338C90 37.8713 82.5337 32.22 71.085 28.7175C73.7287 17.0513 72.555 7.76625 67.38 4.7925C66.1261 4.0902 64.7069 3.7367 63.27 3.76875V7.85625C64.1137 7.85625 64.7925 8.025 65.3625 8.33625C67.8563 9.76875 68.94 15.2138 68.0963 22.2225C67.8938 23.9475 67.5638 25.7625 67.1588 27.615C63.3249 26.6911 59.4338 26.0234 55.5113 25.6163C53.1745 22.3923 50.625 19.328 47.88 16.4438C53.8612 10.8863 59.475 7.84125 63.2925 7.84125V3.75C58.245 3.75 51.6412 7.34625 44.9625 13.5825C38.2875 7.3875 31.68 3.825 26.6363 3.825V7.9125C30.435 7.9125 36.0675 10.9425 42.0488 16.4625C39.48 19.1625 36.9113 22.2225 34.47 25.6163C30.5394 26.0189 26.6413 26.693 22.8037 27.6338C22.38 25.8 22.0688 24.0225 21.8475 22.3163C20.985 15.3038 22.05 9.85875 24.5287 8.41125C25.0762 8.08125 25.7925 7.93125 26.6363 7.93125V3.84375C25.0988 3.84375 23.7 4.17375 22.4925 4.8675C17.3363 7.84125 16.1813 17.1038 18.84 28.7363C7.42875 32.2613 0 37.89 0 43.8338C0 49.7963 7.46625 55.4475 18.915 58.9463C16.2713 70.6163 17.445 79.9013 22.62 82.8713C23.8125 83.5688 25.2075 83.8988 26.745 83.8988C31.7925 83.8988 38.3963 80.3025 45.075 74.0663C51.75 80.265 58.3537 83.8238 63.4012 83.8238C64.8491 83.8543 66.2791 83.4997 67.545 82.7963C72.7012 79.8263 73.8563 70.5638 71.1975 58.9313C82.5713 55.4288 90 49.7775 90 43.8338ZM66.1125 31.5975C65.3999 34.0495 64.5741 36.4671 63.6375 38.8425C62.1044 35.8603 60.4209 32.9579 58.5938 30.1463C61.2 30.5325 63.7125 31.0088 66.1163 31.5975H66.1125ZM57.7125 51.135C56.2838 53.61 54.8138 55.9613 53.2913 58.1438C47.7872 58.6289 42.2514 58.6351 36.7462 58.1625C33.5886 53.6519 30.827 48.8766 28.4925 43.89C30.8234 38.8916 33.5733 34.0995 36.7125 29.565C42.2152 29.0789 47.7497 29.0714 53.2538 29.5425C54.7763 31.725 56.265 34.0575 57.6938 36.5175C59.0888 38.9175 60.3562 41.355 61.5112 43.815C60.3434 46.3048 59.0762 48.7468 57.7125 51.135V51.135ZM63.6375 48.75C64.6275 51.2063 65.475 53.6663 66.1688 56.0513C63.7688 56.64 61.2338 57.135 58.6125 57.5175C60.4322 54.6803 62.1092 51.7542 63.6375 48.75V48.75ZM45.0375 68.325C43.3313 66.5625 41.625 64.6013 39.9375 62.4525C41.5875 62.5275 43.275 62.5838 44.9812 62.5838C46.7062 62.5838 48.4125 62.5463 50.0812 62.4525C48.4312 64.6013 46.725 66.5625 45.0375 68.325ZM31.3875 57.5175C28.859 57.1511 26.3489 56.6681 23.865 56.07C24.5437 53.7038 25.3875 51.2625 26.34 48.825C27.0938 50.2875 27.885 51.7575 28.7475 53.2275C29.61 54.6938 30.4875 56.1263 31.3875 57.5175ZM44.9437 19.3425C46.65 21.105 48.3563 23.0663 50.0438 25.215C48.3938 25.14 46.7063 25.0838 45 25.0838C43.275 25.0838 41.5688 25.1213 39.9 25.215C41.55 23.0663 43.2562 21.105 44.9437 19.3425ZM31.3687 30.15C29.5495 32.981 27.8724 35.9009 26.3438 38.8988C25.3808 36.508 24.536 34.0713 23.8125 31.5975C26.2125 31.0275 28.7475 30.5325 31.3687 30.15ZM14.7675 53.115C8.2725 50.3475 4.0725 46.7138 4.0725 43.8338C4.0725 40.9538 8.2725 37.3013 14.7675 34.5525C16.3425 33.8738 18.0675 33.2663 19.8488 32.7C20.895 36.2925 22.2713 40.035 23.9738 43.8713C22.3664 47.4794 21.007 51.1931 19.905 54.9863C18.1629 54.4469 16.4484 53.8224 14.7675 53.115V53.115ZM24.6375 79.3275C22.1438 77.9025 21.06 72.45 21.9038 65.445C22.1063 63.72 22.4363 61.9013 22.8413 60.0488C26.4338 60.93 30.36 61.6088 34.4887 62.0513C36.8257 65.2751 39.3751 68.3394 42.12 71.2238C36.1388 76.7813 30.525 79.8263 26.7075 79.8263C25.9873 79.8341 25.2763 79.6641 24.6375 79.3313V79.3275ZM68.1525 65.3513C69.015 72.36 67.95 77.8088 65.4712 79.2563C64.9237 79.5863 64.2075 79.7325 63.3637 79.7325C59.565 79.7325 53.9325 76.7063 47.9512 71.1825C50.52 68.49 53.0887 65.4263 55.53 62.0325C59.4606 61.6299 63.3587 60.9558 67.1963 60.015C67.62 61.8675 67.9462 63.645 68.1525 65.3513V65.3513ZM75.2137 53.115C73.6387 53.7938 71.9137 54.4013 70.1325 54.9675C69.0112 51.1549 67.633 47.4227 66.0075 43.7963C67.695 39.9825 69.0488 36.2588 70.0763 32.6813C71.895 33.2475 73.6163 33.8738 75.2325 34.5525C81.7275 37.32 85.9275 40.9538 85.9275 43.8338C85.9087 46.7138 81.7087 50.3663 75.2137 53.115V53.115Z" fill="white"/>
<path d="M44.9813 52.2187C47.2051 52.2187 49.3379 51.3353 50.9103 49.7628C52.4828 48.1903 53.3663 46.0576 53.3663 43.8337C53.3663 41.6099 52.4828 39.4771 50.9103 37.9046C49.3379 36.3321 47.2051 35.4487 44.9813 35.4487C42.7574 35.4487 40.6247 36.3321 39.0522 37.9046C37.4797 39.4771 36.5963 41.6099 36.5963 43.8337C36.5963 46.0576 37.4797 48.1903 39.0522 49.7628C40.6247 51.3353 42.7574 52.2187 44.9813 52.2187V52.2187Z" fill="white"/>
</g>
<defs>
<clipPath id="clip0_132_42">
<rect width="90" height="90" fill="white"/>
</clipPath>
</defs>
</svg>
