<svg width="90" height="90" viewBox="0 0 90 90" fill="none" xmlns="http://www.w3.org/2000/svg">
<g clip-path="url(#clip0_132_60)">
<path d="M45.0038 18C33.0038 18 25.5038 24 22.5038 36C27.0038 30 32.2538 27.75 38.2538 29.25C41.6775 30.105 44.1225 32.5875 46.8338 35.34C51.2475 39.8175 56.3513 45 67.5038 45C79.5038 45 87.0038 39 90.0038 27C85.5038 33 80.2538 35.25 74.2538 33.75C70.83 32.895 68.385 30.4125 65.6738 27.66C61.2638 23.1825 56.16 18 45.0038 18ZM22.5038 45C10.5038 45 3.00375 51 0.00375366 63C4.50375 57 9.75375 54.75 15.7538 56.25C19.1775 57.105 21.6225 59.5875 24.3338 62.34C28.7475 66.8175 33.8513 72 45.0038 72C57.0038 72 64.5038 66 67.5038 54C63.0038 60 57.7538 62.25 51.7538 60.75C48.33 59.895 45.885 57.4125 43.1738 54.66C38.7638 50.1825 33.66 45 22.5038 45V45Z" fill="white"/>
</g>
<defs>
<clipPath id="clip0_132_60">
<rect width="90" height="90" fill="white"/>
</clipPath>
</defs>
</svg>
