<svg width="90" height="90" viewBox="0 0 90 90" fill="none" xmlns="http://www.w3.org/2000/svg">
<path d="M0 45V90H90V0H0V45ZM72.5231 41.4112C74.6807 41.9193 76.6415 43.0498 78.1622 44.6625C78.9834 45.54 80.2125 47.1516 80.3166 47.5481C80.3447 47.6663 76.4353 50.2875 74.0616 51.7528C73.9744 51.8119 73.6228 51.4462 73.2403 50.8725C72.0844 49.1878 70.8666 48.4566 69.0075 48.3244C66.2822 48.1472 64.5244 49.5703 64.5384 51.9581C64.5241 52.5424 64.6546 53.1212 64.9181 53.6428C65.52 54.8887 66.6478 55.6341 70.1325 57.1444C76.5788 59.9119 79.3322 61.7428 81.045 64.3359C82.9631 67.2356 83.3878 71.865 82.0997 75.3216C80.6653 79.0566 77.1188 81.6047 72.1378 82.44C70.5994 82.7184 66.9375 82.6734 65.2809 82.3669C61.6641 81.7228 58.2356 79.9341 56.1262 77.5912C55.2909 76.6828 53.6794 74.295 53.7834 74.1347C53.8284 74.0756 54.1941 73.8422 54.6047 73.6059L57.9459 71.6709L60.5391 70.1634L61.0819 70.9678C61.8441 72.1237 63.4978 73.7072 64.4962 74.2331C67.3678 75.7575 71.3081 75.5381 73.2572 73.7944C74.0475 73.1363 74.4891 72.1238 74.43 71.1C74.43 70.0594 74.2978 69.5925 73.755 68.8134C73.0519 67.8178 71.6316 66.9684 67.5731 65.2106C62.9297 63.2025 60.9216 61.9734 59.1075 59.9963C57.9655 58.6948 57.1209 57.1602 56.6325 55.4991C56.295 54.225 56.2078 51.03 56.4722 49.7559C57.4256 45.2588 60.8231 42.1397 65.7 41.2172C67.2834 40.9106 70.9734 41.0259 72.5259 41.4084L72.5231 41.4112ZM51.4012 45.1772L51.4294 48.8531H39.7097V82.1503H31.4184V48.8531H19.7156V45.2503C19.7156 43.2422 19.7606 41.5744 19.8169 41.5294C19.8619 41.4703 26.9803 41.4422 35.6231 41.4562L51.3563 41.5012L51.4012 45.1772Z" fill="white"/>
</svg>
